{
  "accessors": [
    {
      "bufferView": 0,
      "byteOffset": 0,
      "componentType": 5125,
      "count": 46485,
      "type": "SCALAR"
    },
    {
      "bufferView": 1,
      "byteOffset": 0,
      "componentType": 5126,
      "count": 7909,
      "max": [
        1.38324499130249023438e-01,
        2.44339103698730436554e-01,
        1.27998771667480526482e-01
      ],
      "min": [
        -1.38324499130249023438e-01,
        2.95430898666381620832e-02,
        -3.66457104682922224503e-02
      ],
      "type": "VEC3"
    },
    {
      "bufferView": 1,
      "byteOffset": 12,
      "componentType": 5126,
      "count": 7909,
      "type": "VEC3"
    },
    {
      "bufferView": 2,
      "byteOffset": 0,
      "componentType": 5125,
      "count": 9804,
      "type": "SCALAR"
    },
    {
      "bufferView": 3,
      "byteOffset": 0,
      "componentType": 5126,
      "count": 1636,
      "max": [
        1.33267927169799793585e-01,
        2.97608299255371078207e-01,
        1.64184093475341824631e-01
      ],
      "min": [
        -1.33267927169799793585e-01,
        2.52682304382324043890e-02,
        -9.54764008522030784010e-03
      ],
      "type": "VEC3"
    },
    {
      "bufferView": 3,
      "byteOffset": 12,
      "componentType": 5126,
      "count": 1636,
      "type": "VEC3"
    }
  ],
  "asset": {
    "generator": "Wings 3D 2.2.6.1",
    "version": "2.0"
  },
  "bufferViews": [
    {
      "buffer": 0,
      "byteLength": 185940,
      "byteOffset": 0
    },
    {
      "buffer": 0,
      "byteLength": 189816,
      "byteOffset": 185940,
      "byteStride": 24
    },
    {
      "buffer": 0,
      "byteLength": 39216,
      "byteOffset": 375756
    },
    {
      "buffer": 0,
      "byteLength": 39264,
      "byteOffset": 414972,
      "byteStride": 24
    }
  ],
  "buffers": [
    {
      "byteLength": 454236,
      "uri": "totoo.bin"
    }
  ],
  "images": [
    {
      "uri": "initialShadingGroup_baseColor.jpeg"
    },
    {
      "uri": "initialShadingGroup_baseColor.jpeg"
    }
  ],
  "materials": [
    {
      "doubleSided": true,
      "emissiveFactor": [
        0.00000000000000000000e+00,
        0.00000000000000000000e+00,
        0.00000000000000000000e+00
      ],
      "name": "initialShadingGroup2",
      "pbrMetallicRoughness": {
        "baseColorFactor": [
          1.00000000000000000000e+00,
          1.00000000000000000000e+00,
          1.00000000000000000000e+00,
          1.00000000000000000000e+00
        ],
        "baseColorTexture": {
          "index": 0
        },
        "metallicFactor": 0.00000000000000000000e+00,
        "roughnessFactor": 1.00000000000000000000e+00
      }
    },
    {
      "doubleSided": true,
      "emissiveFactor": [
        0.00000000000000000000e+00,
        0.00000000000000000000e+00,
        0.00000000000000000000e+00
      ],
      "name": "initialShadingGroup",
      "pbrMetallicRoughness": {
        "baseColorFactor": [
          1.00000000000000000000e+00,
          1.00000000000000000000e+00,
          1.00000000000000000000e+00,
          1.00000000000000000000e+00
        ],
        "baseColorTexture": {
          "index": 1
        },
        "metallicFactor": 0.00000000000000000000e+00,
        "roughnessFactor": 1.00000000000000000000e+00
      }
    }
  ],
  "meshes": [
    {
      "name": "",
      "primitives": [
        {
          "attributes": {
            "NORMAL": 2,
            "POSITION": 1
          },
          "indices": 0,
          "material": 0
        }
      ]
    },
    {
      "name": "",
      "primitives": [
        {
          "attributes": {
            "NORMAL": 5,
            "POSITION": 4
          },
          "indices": 3,
          "material": 1
        }
      ]
    }
  ],
  "nodes": [
    {
      "mesh": 0,
      "name": ""
    },
    {
      "mesh": 1,
      "name": ""
    }
  ],
  "scene": 0,
  "scenes": [
    {
      "nodes": [
        0,
        1
      ]
    }
  ],
  "textures": [
    {
      "source": 0
    },
    {
      "source": 1
    }
  ]
}